# xmcd
#
# Track frame offsets: 
#        150
#        12858
#        27408
#        38937
#        50611
#        63249
#        77007
#        89678
#        102380
#        114274
#        124609
#        137065
#        147545
#        160123
#        172683
#        184912
#        197365
#        209647
#        221485
#        232986
#        245280
#        256931
#        267269
#        277814
#
# Disc length: 3835 seconds
#
# Revision: 0
# Processed by: cddbd v1.5.2PL0 Copyright (c) Steve Scherf et al.
# Submitted via: ExactAudioCopyFreeDBPlugin 1.0
#
DISCID=4e0ef918
DTITLE=Various Artist - The Best Of King and Starday Blugrass [CD1]
DYEAR=2010
DGENRE=Bluegrass
TTITLE0=J.E. Mainer - Big Ball's In Town
TTITLE1=J.E. Mainer - Gathering Flowers From The Hillside
TTITLE2=Tommy Magness and His Tennessee Buddies - When I Safely Reach Th
TTITLE2=at Other Shore
TTITLE3=Tommy Magness and His Tennessee Buddies - Little Country Preache
TTITLE3=r
TTITLE4=Tommy Magness and His Tennessee Buddies - Wings Of Faith
TTITLE5=Tommy Magness and His Tennessee Buddies - Jesus Will Save Your S
TTITLE5=oul
TTITLE6=Shannon Grayson and The Golden Valley Boys - Let Me Travel Alone
TTITLE7=Shannon Grayson and The Golden Valley Boys - Since His Sweet Lov
TTITLE7=e Has Rescued Me
TTITLE8=Shannon Grayson and The Golden Valley Boys - I'm Gonna Walk On
TTITLE9=Jimmy Martin, Bob Osborne and The Sunny Mountain Boys - My Lonel
TTITLE9=y Heart
TTITLE10=Jimmy Martin, Bob Osborne and The Sunny Mountain Boys - She's J
TTITLE10=ust A Cute Thing
TTITLE11=Jimmy Martin, Bob Osborne and The Sunny Mountain Boys - Blue Ey
TTITLE11=ed Darling
TTITLE12=Jimmy Martin, Bob Osborne and The Sunny Mountain Boys - You'll 
TTITLE12=Never Be The Same
TTITLE13=Wade Mainer - Little Birdie
TTITLE14=Wade Mainer - The Girl I Left In Sunny Tennessee
TTITLE15=Wade Mainer - That Star Belongs To Me
TTITLE16=Mac O'Dell - Let's Pray
TTITLE17=Mac O'Dell - Be On Time
TTITLE18=Mac O'Dell - When The Hand Of God Comes Down
TTITLE19=Mac O'Dell - Wolves In Sheeps' Clothing
TTITLE20=Leon Jackson, Johnny Bryant and The White Oak Mountain Boys - L
TTITLE20=ove Please Come Home
TTITLE21=Leon Jackson, Johnny Bryant and The White Oak Mountain Boys - G
TTITLE21=o Find Another Man
TTITLE22=Leon Jackson, Johnny Bryant and The White Oak Mountain Boys - S
TTITLE22=o Goes My Heart
TTITLE23=Leon Jackson, Johnny Bryant and The White Oak Mountain Boys - T
TTITLE23=his Heart's Been Broken Before
EXTD=
EXTT0=
EXTT1=
EXTT2=
EXTT3=
EXTT4=
EXTT5=
EXTT6=
EXTT7=
EXTT8=
EXTT9=
EXTT10=
EXTT11=
EXTT12=
EXTT13=
EXTT14=
EXTT15=
EXTT16=
EXTT17=
EXTT18=
EXTT19=
EXTT20=
EXTT21=
EXTT22=
EXTT23=
PLAYORDER=
